<svg width="36" height="36" viewBox="0 0 36 36" fill="none" xmlns="http://www.w3.org/2000/svg">
<rect width="36" height="36" rx="18" fill="#FAFAFA"/>
<path d="M28.56 18.25C28.56 17.47 28.49 16.72 28.36 16H18V20.255H23.92C23.665 21.63 22.89 22.795 21.725 23.575V26.335H25.28C27.36 24.42 28.56 21.6 28.56 18.25Z" fill="#4285F4"/>
<path d="M17.9989 29C20.9689 29 23.4589 28.015 25.2789 26.335L21.7239 23.575C20.7389 24.235 19.4789 24.625 17.9989 24.625C15.1339 24.625 12.7089 22.69 11.8439 20.09H8.16895V22.94C9.97894 26.535 13.6989 29 17.9989 29Z" fill="#34A853"/>
<path d="M11.845 20.0901C11.625 19.4301 11.5 18.7251 11.5 18.0001C11.5 17.2751 11.625 16.5701 11.845 15.9101V13.0601H8.17C7.4 14.593 6.99932 16.2847 7 18.0001C7 19.7751 7.425 21.4551 8.17 22.9401L11.845 20.0901Z" fill="#FBBC05"/>
<path d="M17.9989 11.3751C19.6139 11.3751 21.0639 11.9301 22.2039 13.0201L25.3589 9.86512C23.4539 8.09012 20.9639 7.00012 17.9989 7.00012C13.6989 7.00012 9.97894 9.46512 8.16895 13.0601L11.8439 15.9101C12.7089 13.3101 15.1339 11.3751 17.9989 11.3751Z" fill="#EA4335"/>
</svg>
