<svg width="60" height="36" viewBox="0 0 60 36" fill="none" xmlns="http://www.w3.org/2000/svg">
<path d="M0 18C0 8.05888 8.05888 0 18 0C27.9411 0 36 8.05888 36 18C36 27.9411 27.9411 36 18 36C8.05888 36 0 27.9411 0 18Z" fill="#333331"/>
<path d="M0.5 18C0.5 8.33502 8.33502 0.5 18 0.5C27.665 0.5 35.5 8.33502 35.5 18C35.5 27.665 27.665 35.5 18 35.5C8.33502 35.5 0.5 27.665 0.5 18Z" stroke="#FAFAFA" stroke-opacity="0.16"/>
<path opacity="0.6" fill-rule="evenodd" clip-rule="evenodd" d="M25.6531 21.293C25.2309 21.0857 23.1738 20.0802 22.79 19.942C22.4062 19.7962 22.1222 19.7347 21.8459 20.1492C21.5695 20.5637 20.7559 21.5002 20.5179 21.7689C20.2723 22.0452 20.0344 22.0836 19.6045 21.8763C19.19 21.6691 17.839 21.2392 16.2348 19.8115C14.999 18.7139 14.1469 17.3552 13.909 16.9407C13.671 16.5262 13.886 16.3036 14.0932 16.0964C14.2851 15.9045 14.5077 15.6051 14.7226 15.3672C14.7764 15.2981 14.8301 15.229 14.8761 15.1676C14.9759 15.0141 15.045 14.8682 15.1371 14.6686C15.283 14.3923 15.2062 14.1467 15.1064 13.9394C14.999 13.7322 14.1623 11.6827 13.8092 10.8537C13.4638 10.0247 13.1107 10.1629 12.8651 10.1629C12.6194 10.1629 12.3431 10.1245 12.0668 10.1245C11.7904 10.1245 11.3299 10.232 10.9461 10.6465C10.5623 11.061 9.47998 12.0665 9.47998 14.116C9.47998 14.5996 9.56442 15.0755 9.69491 15.5283C10.1171 16.9944 11.0305 18.1996 11.1917 18.4068C11.399 18.6755 14.0855 23.0124 18.338 24.6857C22.5981 26.3437 22.5981 25.791 23.3657 25.7143C24.1333 25.6529 25.845 24.7164 26.1904 23.7416C26.5435 22.7744 26.5435 21.9454 26.4361 21.7689C26.3286 21.6 26.0523 21.5002 25.6378 21.2853L25.6531 21.293Z" fill="#FAFAFA"/>
<path d="M24 18C24 8.05888 32.0589 0 42 0C51.9411 0 60 8.05888 60 18C60 27.9411 51.9411 36 42 36C32.0589 36 24 27.9411 24 18Z" fill="#333331"/>
<path d="M24.5 18C24.5 8.33502 32.335 0.5 42 0.5C51.665 0.5 59.5 8.33502 59.5 18C59.5 27.665 51.665 35.5 42 35.5C32.335 35.5 24.5 27.665 24.5 18Z" stroke="#FAFAFA" stroke-opacity="0.16"/>
<g opacity="0.6">
<path d="M41.8829 20.5037C45.0643 17.3039 48.2382 14.1117 51.3348 11H32.4634C35.6896 14.2552 38.866 17.4625 41.8804 20.5037H41.8829Z" fill="white"/>
<path d="M33.0962 25H50.8814C49.0229 23.1018 47.1719 21.2086 45.1764 19.1694C44.8376 19.5571 44.4789 20.0153 44.0753 20.4257C42.0598 22.48 41.878 22.4875 39.8376 20.3779C39.444 19.97 39.2098 19.4086 38.9881 19.0562C36.7957 21.2691 34.9597 23.122 33.0987 25.0026L33.0962 25Z" fill="white"/>
<path d="M51.9999 12.8228C50.1215 14.6731 48.268 16.4958 46.5415 18.1977C48.3402 20.0481 50.1638 21.9236 51.9999 23.8143V12.8228Z" fill="white"/>
<path d="M32 12.7852V23.8271C33.8734 21.9414 35.7095 20.0961 37.5356 18.2583C35.7569 16.4985 33.9008 14.6632 32 12.7852Z" fill="white"/>
<path d="M41.8829 20.5037C38.866 17.4625 35.6896 14.2552 32.4634 11H51.3348C48.2382 14.1117 45.0643 17.3039 41.8829 20.5037Z" fill="#FAFAFA"/>
<path d="M33.0962 25.0001C34.9597 23.1195 36.7957 21.2666 38.9856 19.0537C39.2073 19.4062 39.4415 19.9701 39.8351 20.3754C41.8755 22.4851 42.0573 22.4776 44.0728 20.4232C44.4764 20.0129 44.8351 19.5547 45.1739 19.167C47.1694 21.2062 49.0229 23.0994 50.879 24.9976H33.0962V25.0001Z" fill="#FAFAFA"/>
<path d="M51.9999 12.8228V23.8119C50.1638 21.9237 48.3377 20.0456 46.5415 18.1952C48.268 16.4959 50.1215 14.6707 51.9999 12.8203V12.8228Z" fill="#FAFAFA"/>
<path d="M32 12.7852C33.9008 14.6632 35.7569 16.4985 37.5356 18.2558C35.7095 20.0936 33.8734 21.9414 32 23.8245V12.7852Z" fill="#FAFAFA"/>
</g>
</svg>
